<?xml version="1.0" standalone="no"?>
<!DOCTYPE svg PUBLIC "-//W3C//DTD SVG 20010904//EN"
 "http://www.w3.org/TR/2001/REC-SVG-20010904/DTD/svg10.dtd">
<svg version="1.0" xmlns="http://www.w3.org/2000/svg"
 width="260.000000pt" height="260.000000pt" viewBox="0 0 260.000000 260.000000"
 preserveAspectRatio="xMidYMid meet">
<metadata>
Created by potrace 1.11, written by Peter Selinger 2001-2013
</metadata>
<g transform="translate(0.000000,260.000000) scale(0.100000,-0.100000)"
fill="#000000" stroke="none">
<path d="M1023 2579 c-475 -100 -853 -459 -989 -939 -24 -85 -27 -117 -31
-297 -4 -163 -2 -218 12 -285 105 -522 501 -923 1025 -1035 119 -25 391 -25
510 0 175 38 321 98 466 192 113 74 292 252 363 360 247 378 289 831 116 1235
-169 395 -542 694 -965 774 -120 23 -387 20 -507 -5z m-363 -986 c69 -117 128
-212 131 -212 3 -1 61 94 129 210 67 116 128 213 134 215 7 3 65 3 129 2 l117
-3 -200 -315 -200 -315 0 -232 0 -233 -110 0 -110 0 0 228 0 228 -196 309
c-108 171 -199 316 -201 323 -4 10 22 12 123 10 l128 -3 126 -212z m1041 37
c57 -93 108 -168 113 -167 5 2 54 78 110 170 l101 166 127 1 128 0 -47 -72
c-25 -40 -81 -127 -123 -193 -42 -66 -97 -152 -122 -191 l-46 -71 184 -277
c101 -152 184 -279 184 -281 0 -3 -58 -5 -129 -5 l-128 0 -118 185 c-65 102
-121 187 -124 189 -3 2 -60 -81 -126 -185 l-120 -189 -129 0 c-101 0 -127 3
-123 13 3 7 84 133 181 280 97 148 176 272 176 278 0 11 -3 16 -188 302 l-141
217 128 0 128 0 104 -170z"/>
</g>
</svg>
